<?xml version="1.0" standalone="no"?>
<!DOCTYPE svg PUBLIC "-//W3C//DTD SVG 20010904//EN"
 "http://www.w3.org/TR/2001/REC-SVG-20010904/DTD/svg10.dtd">
<svg version="1.0" xmlns="http://www.w3.org/2000/svg"
 width="451.000000pt" height="165.000000pt" viewBox="0 0 451.000000 165.000000"
 preserveAspectRatio="xMidYMid meet">

<g transform="translate(0.000000,165.000000) scale(0.100000,-0.100000)"
fill="#000000" stroke="none">
<path d="M1037 1503 c-4 -3 -7 -19 -7 -34 0 -21 -10 -36 -37 -56 -62 -47 -83
-71 -89 -100 -5 -26 -9 -28 -55 -30 -69 -2 -124 -39 -153 -104 -19 -45 -24
-49 -56 -49 -51 -1 -112 -32 -149 -76 l-33 -39 4 -214 c4 -184 7 -215 21 -226
9 -7 14 -15 10 -18 -3 -4 -1 -7 5 -7 9 0 12 61 12 228 0 200 2 230 18 248 34
42 68 56 128 52 l57 -3 12 43 c28 93 79 129 166 117 47 -7 49 -6 49 17 1 40
23 75 70 110 l45 34 52 -34 c50 -33 73 -70 73 -120 0 -11 11 -12 49 -7 52 7
105 -9 130 -39 8 -9 22 -40 31 -69 l17 -52 61 3 c57 4 62 2 101 -33 l41 -37 1
-237 c1 -130 3 -228 6 -219 2 10 10 18 17 18 28 0 38 408 12 458 -31 60 -100
101 -170 102 -27 1 -34 7 -55 51 -31 66 -84 102 -152 103 -35 1 -49 5 -49 15
0 26 -39 76 -79 100 -40 25 -61 56 -61 91 0 20 -29 28 -43 13z"/>
<path d="M640 840 c-54 -47 -55 -49 -54 -101 1 -93 14 -169 29 -169 7 0 16
-10 19 -22 3 -13 3 34 1 104 l-4 127 35 26 35 26 33 -33 34 -34 -5 -89 c-5
-71 -3 -90 9 -99 8 -6 17 -18 21 -26 3 -8 6 21 7 65 1 44 5 91 9 105 12 41 0
71 -42 112 -65 62 -66 62 -127 8z"/>
<path d="M1374 852 c-62 -55 -64 -64 -57 -198 3 -66 9 -112 11 -104 3 8 12 20
20 26 12 9 14 28 9 100 l-5 88 35 33 34 33 34 -26 34 -26 -6 -115 c-6 -114 -6
-115 14 -105 15 9 22 25 26 69 4 32 10 80 13 106 l7 48 -57 54 c-31 30 -60 55
-64 55 -4 -1 -26 -18 -48 -38z"/>
<path d="M1004 870 c-28 -11 -61 -54 -69 -91 -9 -39 21 -98 62 -124 18 -11 32
-24 33 -28 0 -4 -17 -18 -37 -30 l-38 -22 30 -6 c18 -3 39 0 54 9 21 13 26 12
52 -7 19 -15 30 -17 35 -9 4 7 3 8 -4 4 -7 -4 -12 -1 -12 8 0 20 9 20 32 -1
10 -9 18 -11 18 -6 0 6 -16 20 -35 32 -41 24 -44 38 -10 51 42 16 90 120 55
120 -5 0 -10 -9 -10 -19 0 -25 -55 -71 -85 -71 -56 0 -95 39 -95 96 0 25 34
66 75 91 19 11 19 12 -5 12 -14 0 -35 -4 -46 -9z"/>
<path d="M1047 787 c-16 -16 -16 -18 -2 -24 9 -3 24 -2 34 3 16 8 16 10 2 24
-14 13 -18 13 -34 -3z"/>
<path d="M1958 470 c-1 -28 0 -50 5 -50 4 0 7 23 7 50 0 65 -7 65 -12 0z"/>
<path d="M2278 470 c-1 -28 0 -50 5 -50 4 0 7 23 7 50 0 65 -7 65 -12 0z"/>
<path d="M2371 504 c0 -11 3 -14 6 -6 3 7 2 16 -1 19 -3 4 -6 -2 -5 -13z"/>
<path d="M2628 470 c-1 -28 0 -50 5 -50 4 0 7 23 7 50 0 65 -7 65 -12 0z"/>
<path d="M2790 460 c0 -22 3 -40 8 -40 4 0 6 18 4 40 -2 22 -6 40 -8 40 -2 0
-4 -18 -4 -40z"/>
<path d="M2076 477 c3 -10 9 -15 12 -12 3 3 0 11 -7 18 -10 9 -11 8 -5 -6z"/>
<path d="M2238 455 c-2 -19 0 -35 4 -35 4 0 8 16 8 35 0 19 -2 35 -4 35 -2 0
-6 -16 -8 -35z"/>
<path d="M2523 455 c0 -22 2 -30 4 -17 2 12 2 30 0 40 -3 9 -5 -1 -4 -23z"/>
<path d="M2749 452 c5 -34 6 -35 9 -8 2 16 0 32 -5 37 -5 5 -7 -7 -4 -29z"/>
<path d="M2843 455 c0 -22 2 -30 4 -17 2 12 2 30 0 40 -3 9 -5 -1 -4 -23z"/>
<path d="M3010 461 c0 -17 4 -32 8 -35 4 -2 6 11 4 30 -5 42 -12 45 -12 5z"/>
<path d="M3050 461 c0 -17 4 -32 8 -35 4 -2 6 11 4 30 -5 42 -12 45 -12 5z"/>
<path d="M3163 455 c0 -22 2 -30 4 -17 2 12 2 30 0 40 -3 9 -5 -1 -4 -23z"/>
<path d="M3553 455 c0 -22 2 -30 4 -17 2 12 2 30 0 40 -3 9 -5 -1 -4 -23z"/>
<path d="M3593 455 c0 -22 2 -30 4 -17 2 12 2 30 0 40 -3 9 -5 -1 -4 -23z"/>
<path d="M3653 455 c0 -22 2 -30 4 -17 2 12 2 30 0 40 -3 9 -5 -1 -4 -23z"/>
<path d="M2044 450 c1 -16 7 -25 19 -26 11 -1 12 0 3 3 -8 2 -17 14 -19 26 -3
18 -4 18 -3 -3z"/>
<path d="M2121 464 c0 -11 3 -14 6 -6 3 7 2 16 -1 19 -3 4 -6 -2 -5 -13z"/>
<path d="M2170 470 c0 -5 9 -14 20 -20 11 -6 20 -9 20 -8 0 2 -9 11 -20 21
-11 9 -20 13 -20 7z"/>
<path d="M2940 470 c0 -5 9 -14 20 -20 11 -6 20 -9 20 -8 0 2 -9 11 -20 21
-11 9 -20 13 -20 7z"/>
<path d="M2006 457 c3 -10 9 -15 12 -12 3 3 0 11 -7 18 -10 9 -11 8 -5 -6z"/>
<path d="M3094 445 c1 -12 9 -21 21 -22 14 -1 15 0 3 3 -9 3 -19 13 -21 22 -3
12 -4 11 -3 -3z"/>
<path d="M3463 451 c1 -14 9 -26 17 -28 10 -3 11 -2 4 4 -7 4 -14 17 -17 28
-5 16 -5 15 -4 -4z"/>
<path d="M2371 457 c2 -1 15 -11 29 -22 l25 -20 -19 23 c-11 12 -24 22 -29 22
-6 0 -8 -1 -6 -3z"/>
<path d="M3220 456 c0 -2 8 -10 18 -17 15 -13 16 -12 3 4 -13 16 -21 21 -21
13z"/>
<path d="M3310 446 c0 -8 4 -17 9 -20 5 -4 7 3 4 14 -6 23 -13 26 -13 6z"/>
<path d="M2710 435 c0 -8 4 -15 10 -15 5 0 7 7 4 15 -4 8 -8 15 -10 15 -2 0
-4 -7 -4 -15z"/>
<path d="M2115 430 c-3 -5 -1 -10 4 -10 6 0 11 5 11 10 0 6 -2 10 -4 10 -3 0
-8 -4 -11 -10z"/>
<path d="M2365 430 c-3 -5 -1 -10 4 -10 6 0 11 5 11 10 0 6 -2 10 -4 10 -3 0
-8 -4 -11 -10z"/>
<path d="M2440 430 c0 -5 5 -10 11 -10 5 0 7 5 4 10 -3 6 -8 10 -11 10 -2 0
-4 -4 -4 -10z"/>
<path d="M3355 430 c-3 -5 -1 -10 4 -10 6 0 11 5 11 10 0 6 -2 10 -4 10 -3 0
-8 -4 -11 -10z"/>
</g>
</svg>
