<?xml version="1.0" standalone="no"?>
<!DOCTYPE svg PUBLIC "-//W3C//DTD SVG 20010904//EN"
 "http://www.w3.org/TR/2001/REC-SVG-20010904/DTD/svg10.dtd">
<svg version="1.0" xmlns="http://www.w3.org/2000/svg"
 width="363.000000pt" height="370.000000pt" viewBox="0 0 363.000000 370.000000"
 preserveAspectRatio="xMidYMid meet">

<g transform="translate(0.000000,370.000000) scale(0.100000,-0.100000)"
fill="#000000" stroke="none">
<path d="M1817 3486 c-8 -8 -17 -38 -21 -67 -8 -59 -36 -92 -138 -163 -64 -45
-106 -103 -115 -160 l-6 -38 -44 6 c-83 11 -187 -23 -258 -85 -50 -44 -75 -83
-101 -153 l-22 -61 -73 -1 c-127 -3 -227 -59 -298 -166 l-41 -60 1 -212 c2
-238 14 -724 17 -658 2 39 3 41 22 30 10 -7 21 -21 23 -33 2 -11 5 0 7 25 2
41 3 42 9 15 12 -53 21 153 21 496 l0 327 45 50 c62 68 127 96 214 89 36 -3
75 -8 86 -11 33 -11 54 14 64 76 28 170 175 271 326 224 44 -14 52 -14 72 0
19 12 23 24 23 61 0 72 30 124 103 173 34 24 74 54 88 67 18 16 29 21 34 14 3
-6 39 -33 78 -60 40 -27 82 -59 93 -72 27 -30 44 -81 44 -130 0 -29 6 -42 23
-53 20 -14 28 -14 72 0 93 29 191 1 255 -72 44 -50 70 -110 70 -161 0 -56 32
-81 81 -64 104 36 232 -7 300 -102 l29 -40 1 -441 c1 -243 4 -432 6 -421 3 11
10 26 15 33 13 16 55 16 61 0 3 -7 6 186 6 428 l1 442 -37 50 c-80 106 -172
154 -292 155 l-77 1 -17 56 c-34 105 -132 204 -230 231 -23 7 -72 12 -109 11
-57 0 -68 3 -68 16 0 30 -46 116 -76 143 -16 14 -57 45 -91 68 -69 46 -93 81
-93 136 0 57 -50 94 -83 61z"/>
<path d="M1089 2257 c-25 -23 -62 -54 -81 -69 -20 -15 -46 -48 -58 -73 -19
-39 -21 -55 -15 -108 4 -34 10 -117 13 -185 4 -72 11 -121 17 -120 5 2 13 -10
16 -27 6 -29 7 -29 8 -4 1 22 5 26 25 22 24 -5 25 -4 28 78 3 77 0 119 -18
238 -8 56 7 84 74 133 l53 40 40 -27 c92 -65 112 -107 85 -185 -17 -48 -19
-106 -10 -210 l6 -65 38 3 37 4 7 119 c4 66 11 131 16 145 15 39 11 95 -10
139 -25 52 -35 64 -95 110 -27 20 -60 48 -72 61 -31 34 -51 30 -104 -19z"/>
<path d="M2503 2277 c-10 -13 -43 -42 -74 -65 -97 -73 -132 -174 -94 -265 10
-25 15 -71 15 -142 0 -104 3 -112 34 -106 5 1 13 -4 17 -11 7 -11 9 -11 9 0 0
7 5 10 10 7 6 -4 11 11 11 37 1 24 3 79 4 123 2 52 -2 92 -11 114 -30 71 -8
121 76 179 l49 34 54 -42 c64 -47 82 -83 72 -137 -12 -64 -17 -235 -9 -303 6
-51 9 -59 13 -36 8 37 30 46 39 15 l6 -24 7 25 c4 14 7 71 8 126 1 66 6 114
16 137 35 83 8 191 -61 243 -20 16 -58 48 -84 72 -53 47 -80 52 -107 19z"/>
<path d="M1738 2266 c-73 -38 -108 -82 -127 -160 -27 -108 33 -222 142 -272
20 -9 37 -21 37 -27 0 -12 -48 -57 -61 -57 -5 0 -9 -4 -9 -10 0 -5 -7 -10 -15
-10 -8 0 -15 -4 -15 -10 0 -5 -6 -10 -14 -10 -8 0 -17 -8 -20 -17 -4 -10 -4
-14 0 -10 4 4 14 1 22 -6 13 -9 14 -9 8 1 -4 7 -1 12 9 12 10 0 13 5 9 13 -6
9 -3 8 8 -1 9 -8 14 -20 11 -29 -5 -12 -7 -12 -14 -1 -5 8 -9 9 -9 2 0 -6 8
-18 17 -25 9 -8 14 -9 10 -2 -4 6 0 19 9 27 8 9 11 16 5 16 -6 0 -11 4 -11 9
0 5 12 6 27 2 20 -5 39 -1 66 13 23 12 41 16 45 11 11 -16 56 -51 49 -38 -5 7
9 12 44 15 28 1 53 1 55 -1 3 -3 10 -6 17 -7 7 -1 21 -5 32 -8 11 -4 4 1 -15
11 -19 10 -36 21 -38 26 -6 12 -30 8 -36 -5 -4 -7 -4 -3 -2 10 3 14 -2 26 -14
32 -24 13 -50 39 -50 51 0 5 17 16 37 24 48 20 80 50 105 99 21 42 30 127 13
132 -5 2 -22 -22 -37 -54 -33 -69 -78 -103 -147 -110 -95 -9 -171 55 -179 152
-7 88 35 150 131 189 20 9 37 21 37 26 0 16 -101 13 -132 -3z"/>
<path d="M1842 2126 c-7 -16 -20 -26 -32 -26 -25 0 -26 -12 -2 -33 26 -23 67
-25 91 -3 26 24 27 36 1 36 -11 0 -25 11 -33 26 l-13 25 -12 -25z"/>
<path d="M1940 1680 c0 -6 9 -14 20 -17 11 -3 17 -10 13 -16 -3 -6 -1 -7 6 -3
6 4 9 11 6 16 -3 5 3 13 12 19 10 6 13 11 8 11 -6 0 -16 -5 -23 -12 -8 -8 -15
-8 -27 2 -11 9 -15 10 -15 0z"/>
<path d="M968 220 c-1 -28 0 -50 5 -50 4 0 7 23 7 50 0 65 -7 65 -12 0z"/>
<path d="M1293 220 c0 -30 2 -43 4 -27 2 15 2 39 0 55 -2 15 -4 2 -4 -28z"/>
<path d="M1381 254 c0 -11 3 -14 6 -6 3 7 2 16 -1 19 -3 4 -6 -2 -5 -13z"/>
<path d="M1643 220 c0 -30 2 -43 4 -27 2 15 2 39 0 55 -2 15 -4 2 -4 -28z"/>
<path d="M2523 220 c0 -30 2 -43 4 -27 2 15 2 39 0 55 -2 15 -4 2 -4 -28z"/>
<path d="M1011 244 c0 -11 3 -14 6 -6 3 7 2 16 -1 19 -3 4 -6 -2 -5 -13z"/>
<path d="M1800 210 c0 -22 3 -40 8 -40 4 0 6 18 4 40 -2 22 -6 40 -8 40 -2 0
-4 -18 -4 -40z"/>
<path d="M1086 227 c3 -10 9 -15 12 -12 3 3 0 11 -7 18 -10 9 -11 8 -5 -6z"/>
<path d="M1253 205 c0 -22 2 -30 4 -17 2 12 2 30 0 40 -3 9 -5 -1 -4 -23z"/>
<path d="M1533 205 c0 -22 2 -30 4 -17 2 12 2 30 0 40 -3 9 -5 -1 -4 -23z"/>
<path d="M1759 202 c5 -34 6 -35 9 -8 2 16 0 32 -5 37 -5 5 -7 -7 -4 -29z"/>
<path d="M2020 211 c0 -17 4 -32 8 -35 4 -2 6 11 4 30 -5 42 -12 45 -12 5z"/>
<path d="M2060 211 c0 -17 4 -32 8 -35 4 -2 6 11 4 30 -5 42 -12 45 -12 5z"/>
<path d="M2173 205 c0 -22 2 -30 4 -17 2 12 2 30 0 40 -3 9 -5 -1 -4 -23z"/>
<path d="M2406 227 c3 -10 9 -15 12 -12 3 3 0 11 -7 18 -10 9 -11 8 -5 -6z"/>
<path d="M2563 205 c0 -22 2 -30 4 -17 2 12 2 30 0 40 -3 9 -5 -1 -4 -23z"/>
<path d="M2663 205 c0 -22 2 -30 4 -17 2 12 2 30 0 40 -3 9 -5 -1 -4 -23z"/>
<path d="M1131 214 c0 -11 3 -14 6 -6 3 7 2 16 -1 19 -3 4 -6 -2 -5 -13z"/>
<path d="M1180 220 c0 -5 9 -14 20 -20 11 -6 20 -9 20 -8 0 2 -9 11 -20 21
-11 9 -20 13 -20 7z"/>
<path d="M2368 200 c-3 -16 -1 -30 4 -30 4 0 8 14 8 30 0 17 -2 30 -4 30 -2 0
-6 -13 -8 -30z"/>
<path d="M1016 207 c3 -10 9 -15 12 -12 3 3 0 11 -7 18 -10 9 -11 8 -5 -6z"/>
<path d="M1054 195 c1 -12 9 -21 21 -22 14 -1 15 0 3 3 -9 3 -19 13 -21 22 -3
12 -4 11 -3 -3z"/>
<path d="M2104 195 c1 -12 9 -21 21 -22 14 -1 15 0 3 3 -9 3 -19 13 -21 22 -3
12 -4 11 -3 -3z"/>
<path d="M2474 195 c1 -12 9 -21 21 -22 14 -1 15 0 3 3 -9 3 -19 13 -21 22 -3
12 -4 11 -3 -3z"/>
<path d="M1381 207 c2 -1 15 -11 29 -22 l25 -20 -19 23 c-11 12 -24 22 -29 22
-6 0 -8 -1 -6 -3z"/>
<path d="M2245 190 c10 -11 20 -20 23 -20 3 0 -3 9 -13 20 -10 11 -20 20 -23
20 -3 0 3 -9 13 -20z"/>
<path d="M2320 196 c0 -8 4 -17 9 -20 5 -4 7 3 4 14 -6 23 -13 26 -13 6z"/>
<path d="M1336 185 c-3 -8 -1 -15 4 -15 6 0 10 7 10 15 0 8 -2 15 -4 15 -2 0
-6 -7 -10 -15z"/>
<path d="M1686 185 c-3 -8 -1 -15 4 -15 6 0 10 7 10 15 0 8 -2 15 -4 15 -2 0
-6 -7 -10 -15z"/>
<path d="M1720 185 c0 -8 4 -15 10 -15 5 0 7 7 4 15 -4 8 -8 15 -10 15 -2 0
-4 -7 -4 -15z"/>
<path d="M1125 180 c-3 -5 -1 -10 4 -10 6 0 11 5 11 10 0 6 -2 10 -4 10 -3 0
-8 -4 -11 -10z"/>
<path d="M1375 180 c-3 -5 -1 -10 4 -10 6 0 11 5 11 10 0 6 -2 10 -4 10 -3 0
-8 -4 -11 -10z"/>
<path d="M1450 180 c0 -5 5 -10 11 -10 5 0 7 5 4 10 -3 6 -8 10 -11 10 -2 0
-4 -4 -4 -10z"/>
<path d="M2210 180 c0 -5 5 -10 11 -10 5 0 7 5 4 10 -3 6 -8 10 -11 10 -2 0
-4 -4 -4 -10z"/>
<path d="M2410 180 c0 -5 5 -10 11 -10 5 0 7 5 4 10 -3 6 -8 10 -11 10 -2 0
-4 -4 -4 -10z"/>
</g>
</svg>
